<svg data-v-fde0c5aa="" xmlns="http://www.w3.org/2000/svg" viewBox="0 100 300 100" class="iconLeft"><!----><defs data-v-fde0c5aa=""><!----></defs><rect data-v-fde0c5aa="" fill="transparent" x="0" y="0" width="300px" height="300px" class="logo-background-square"></rect><defs data-v-fde0c5aa=""><!----></defs><g data-v-fde0c5aa="" id="ddc9472e-6d85-4a67-897a-70980cc47268" fill="#000000" transform="matrix(5.035433050955312,0,0,5.035433050955312,131.64681440944562,122.8307716295142)"><path d="M3.77 7.57L3.77 7.57L5.24 7.57C5.33 7.57 5.40 7.50 5.40 7.42C5.40 7.39 5.40 7.38 5.39 7.35L4.66 5.56C4.62 5.46 4.54 5.42 4.44 5.46C4.37 5.49 4.33 5.59 4.35 5.67L5.01 7.27L3.77 7.27C3.68 7.27 3.60 7.34 3.60 7.42C3.60 7.50 3.68 7.57 3.77 7.57ZM2.72 10.40L2.72 10.40L3.05 9.59L5.95 9.59L6.29 10.40C6.33 10.50 6.41 10.53 6.50 10.50C6.58 10.47 6.62 10.36 6.59 10.29L6.22 9.38C6.20 9.32 6.15 9.28 6.06 9.28L2.95 9.28C2.88 9.28 2.81 9.31 2.80 9.38L2.42 10.29C2.38 10.36 2.42 10.47 2.52 10.50C2.60 10.53 2.69 10.50 2.72 10.40ZM0.55 10.40L0.55 10.40L4.51 0.70L8.47 10.40C8.50 10.50 8.60 10.53 8.68 10.50C8.76 10.47 8.79 10.36 8.76 10.29L4.66 0.22C4.61 0.08 4.41 0.07 4.35 0.22L0.25 10.29C0.21 10.36 0.25 10.47 0.34 10.50C0.42 10.53 0.52 10.50 0.55 10.40ZM15.51 10.49L15.51 10.49L15.51 7.66L16.60 7.66C16.70 7.66 16.77 7.59 16.77 7.50C16.77 7.41 16.70 7.34 16.60 7.34L15.34 7.34C15.25 7.34 15.18 7.41 15.18 7.50L15.18 10.49C15.18 10.57 15.25 10.65 15.34 10.65C15.44 10.65 15.51 10.57 15.51 10.49ZM13.34 5.33L13.34 5.33L12.38 5.33L14.32 0.56C14.35 0.48 14.32 0.38 14.24 0.35C14.15 0.32 14.06 0.36 14.03 0.43L12.00 5.43C11.98 5.45 11.98 5.47 11.98 5.49C11.98 5.57 12.05 5.66 12.14 5.66L13.34 5.66C13.43 5.66 13.51 5.57 13.51 5.49C13.51 5.40 13.43 5.33 13.34 5.33ZM16.60 5.33L16.60 5.33L15.51 5.33L15.51 3.79C15.51 3.71 15.44 3.63 15.34 3.63C15.25 3.63 15.18 3.71 15.18 3.79L15.18 5.49C15.18 5.57 15.25 5.66 15.34 5.66L16.60 5.66C16.70 5.66 16.77 5.57 16.77 5.49C16.77 5.40 16.70 5.33 16.60 5.33ZM11.86 0.43L11.86 0.43L9.02 7.42C8.97 7.55 9.06 7.66 9.17 7.66L13.19 7.66L13.19 10.49C13.19 10.57 13.26 10.65 13.34 10.65C13.43 10.65 13.51 10.57 13.51 10.49L13.51 7.50C13.51 7.41 13.43 7.34 13.34 7.34L9.41 7.34L12.17 0.56C12.19 0.48 12.15 0.38 12.08 0.35C12.00 0.32 11.91 0.36 11.86 0.43ZM22.18 8.67L22.18 8.67C22.85 8.67 23.38 8.16 23.38 7.49C23.38 6.83 22.85 6.34 22.18 6.34L20.43 6.34C20.33 6.34 20.24 6.41 20.24 6.50C20.24 6.58 20.33 6.65 20.43 6.65L22.18 6.65C22.65 6.65 23.04 7 23.04 7.49C23.04 7.98 22.65 8.33 22.18 8.33L21.60 8.33C21.52 8.33 21.45 8.41 21.45 8.50C21.45 8.58 21.52 8.67 21.60 8.67ZM20.43 2.65L20.43 2.65L22.18 2.65C22.65 2.65 23.04 3.00 23.04 3.49C23.04 3.98 22.65 4.33 22.18 4.33L21.60 4.33C21.52 4.33 21.45 4.40 21.45 4.49C21.45 4.58 21.52 4.65 21.60 4.65L22.18 4.65C22.85 4.65 23.38 4.14 23.38 3.49C23.38 2.83 22.85 2.32 22.18 2.32L20.43 2.32C20.31 2.32 20.24 2.39 20.24 2.48C20.24 2.56 20.31 2.65 20.43 2.65ZM18.58 10.50L18.58 10.50L18.58 0.63L22.36 0.63C23.93 0.63 25.16 1.92 25.16 3.49C25.16 4.19 24.92 4.86 24.46 5.39C24.40 5.45 24.40 5.54 24.46 5.60C24.92 6.13 25.16 6.79 25.16 7.49C25.16 9.04 23.93 10.35 22.36 10.35L20.43 10.35C20.33 10.35 20.26 10.42 20.26 10.50C20.26 10.61 20.33 10.68 20.43 10.68L22.36 10.68C24.11 10.68 25.49 9.24 25.49 7.49C25.49 6.76 25.24 6.06 24.79 5.49C25.24 4.93 25.49 4.21 25.49 3.49C25.49 1.74 24.11 0.29 22.36 0.29L18.40 0.29C18.31 0.29 18.24 0.38 18.24 0.48L18.24 10.50C18.24 10.61 18.31 10.68 18.40 10.68C18.49 10.68 18.58 10.61 18.58 10.50Z"></path></g><defs data-v-fde0c5aa=""><linearGradient data-v-fde0c5aa="" gradientTransform="rotate(25)" id="49d53a3d-dc4c-4e86-8f96-3f6390ea8c76" x1="0%" y1="0%" x2="100%" y2="0%"><stop data-v-fde0c5aa="" offset="0%" stop-color="#41E296" stop-opacity="1"></stop><stop data-v-fde0c5aa="" offset="100%" stop-color="#00C4EE" stop-opacity="1"></stop></linearGradient></defs><g data-v-fde0c5aa="" id="32901ec2-eefc-4cb0-8f52-f4765f36462c" stroke="none" fill="url(#49d53a3d-dc4c-4e86-8f96-3f6390ea8c76)" transform="matrix(2.4946124180483014,0,0,2.4946124180483014,40,110.08620131122717)">
  <path d="M16 1c8.271 0 15 6.729 15 15s-6.729 15-15 15S1 24.271 1 16 7.729 1 16 1m0-1C7.163 0 0 7.163 0 16s7.163 16 16 16 16-7.163 16-16S24.837 0 16 0z"></path>
  <g>
    <animateTransform
      attributeName="transform"
      attributeType="XML"
      type="rotate"
      from="0 16 16"
      to="360 16 16"
      dur="3s"
      repeatCount="indefinite"/>
    <path d="M16 7.045L24.955 16 16 24.955 7.045 16 16 7.045m0-1.414L5.631 16 16 26.369 26.369 16 16 5.631z"></path>
  </g>
</g><!----></svg>